#!OML:ASF F:\VICON\USERDATA\INSTALL\SteveWalk\SteveWalk.ASF
:FULLY-SPECIFIED
:DEGREES
318
root 0.1853 16.1682 25.0572 16.2291 7.08759 1.82426
lowerback -14.3342 -2.34074 -5.09678
upperback -4.38124 -2.3546 -0.11825
thorax 3.58873 -1.16715 2.34584
lowerneck -4.22852 -3.03828 -2.0732
upperneck 15.6013 -4.52377 3.92055
head 5.52925 -2.06579 1.29352
rclavicle 1.28496e-014 8.15017e-015
rhumerus -79.006 -42.6359 -23.5463
rradius 10.7903
rwrist 40.1293
rhand -18.7829 -36.0504
rfingers 7.12502
rthumb 7.51467 -65.8969
lclavicle 1.28496e-014 8.15017e-015
lhumerus -21.0687 -8.18235 84.0483
lradius 44.1236
lwrist 8.43598
lhand -21.2082 -17.1051
lfingers 7.12502
lthumb 5.17336 12.8118
rfemur -48.0654 -6.79262 22.6919
rtibia 32.6928
rfoot -12.9731 -6.40949
rtoes -9.80423
lfemur -11.3379 5.94898 -24.3195
ltibia 25.4481
lfoot -24.767 -13.1699
ltoes 1.39031
319
root 0.187223 16.1485 25.2864 16.2046 7.4263 1.6218
lowerback -14.6435 -2.30306 -4.79143
upperback -4.19099 -2.32792 -0.0479471
thorax 3.94695 -1.16335 2.23952
lowerneck -4.2722 -3.15982 -2.11093
upperneck 15.4234 -4.67894 3.92896
head 5.48753 -2.14412 1.29246
rclavicle 6.92019e-015 1.94809e-014
rhumerus -79.8188 -42.1949 -22.8415
rradius 10.886
rwrist 39.9621
rhand -18.259 -36.4236
rfingers 7.12502
rthumb 8.02037 -66.2514
lclavicle 6.92019e-015 1.94809e-014
lhumerus -20.2045 -9.23741 83.9973
lradius 45.4749
lwrist 8.78411
lhand -21.258 -17.3975
lfingers 7.12502
lthumb 5.12519 12.5206
rfemur -47.7863 -6.98482 23.0817
rtibia 29.2742
rfoot -12.803 -5.38255
rtoes -10.8558
lfemur -9.94634 5.97832 -23.8555
ltibia 24.475
lfoot -24.9345 -13.0038
ltoes -0.465801
320
root 0.204947 16.1132 25.5318 16.1655 7.35758 1.75024
lowerback -15.1953 -2.22236 -4.70369
upperback -3.98323 -2.19342 -0.119002
thorax 4.44889 -1.10897 2.12045
lowerneck -4.10748 -3.19322 -2.12771
upperneck 15.2123 -4.73392 4.0502
head 5.39866 -2.16833 1.33323
rclavicle 3.13086e-014 6.16232e-015
rhumerus -80.0053 -41.4557 -23.0975
rradius 10.9622
rwrist 39.1707
rhand -18.0448 -36.4888
rfingers 7.12502
rthumb 8.22708 -66.3086
lclavicle 3.13086e-014 6.16232e-015
lhumerus -19.4538 -10.0831 83.8662
lradius 46.7732
lwrist 9.00533
lhand -21.3978 -17.4595
lfingers 7.12502
lthumb 4.99027 12.4618
rfemur -47.3977 -7.51797 23.3558
rtibia 25.6735
rfoot -12.517 -3.45866
rtoes -10.7706
lfemur -8.4341 6.24017 -23.9013
ltibia 23.7392
lfoot -26.0405 -11.6774
ltoes -7.14202
321
root 0.19129 16.0763 25.7148 16.6926 8.7363 2.37603
lowerback -14.9895 -2.74405 -5.27907
upperback -4.12881 -2.80917 -0.107322
thorax 4.25331 -1.40902 2.34761
lowerneck -3.98513 -3.2067 -2.19289
upperneck 14.8922 -4.74551 4.12719
head 5.28211 -2.17781 1.37058
rclavicle 2.48201e-014 3.77691e-015
rhumerus -80.7095 -40.9775 -22.3851
rradius 10.9103
rwrist 39.2279
rhand -17.7801 -36.2973
rfingers 7.12502
rthumb 8.48255 -66.107
lclavicle 2.48201e-014 3.77691e-015
lhumerus -18.6915 -10.7299 83.7332
lradius 47.9277
lwrist 9.04016
lhand -21.4054 -17.6541
lfingers 7.12502
lthumb 4.98293 12.2673
rfemur -47.8492 -8.27963 22.8293
rtibia 22.4413
rfoot -11.9251 -2.93676
rtoes -11.809
lfemur -7.87797 5.41965 -24.0482
ltibia 22.9862
lfoot -26.702 -10.8189
ltoes -14.7424
322
root 0.186425 16.0249 25.9301 16.882 9.18788 2.50664
lowerback -14.9874 -2.84125 -5.31967
upperback -4.14438 -2.93301 -0.071958
thorax 4.24944 -1.46973 2.38426
lowerneck -4.02769 -3.23595 -2.28487
upperneck 14.6776 -4.77879 4.20624
head 5.22806 -2.19574 1.40835
rclavicle -1.2219e-014 -1.61016e-014
rhumerus -81.1442 -40.4524 -22.1078
rradius 10.9167
rwrist 38.981
rhand -17.3615 -36.5309
rfingers 7.12502
rthumb 8.88652 -66.3238
lclavicle -1.2219e-014 -1.61016e-014
lhumerus -18.0077 -11.3968 83.6023
lradius 49.0129
lwrist 9.1358
lhand -21.6494 -18.1991
lfingers 7.12502
lthumb 4.74727 11.7277
rfemur -48.3125 -8.50619 22.9093
rtibia 19.7353
rfoot -11.1827 -2.51191
rtoes -18.5087
lfemur -6.78804 5.003 -23.8782
ltibia 22.1384
lfoot -26.3778 -10.8194
ltoes -16.066
323
root 0.179481 16.0409 26.149 17.0481 9.52121 2.47435
lowerback -15.076 -2.8819 -5.28531
upperback -4.18293 -2.99095 0.0159337
thorax 4.2642 -1.49743 2.44396
lowerneck -4.39328 -3.31776 -2.15029
upperneck 14.8044 -4.87499 4.00852
head 5.32532 -2.24144 1.31195
rclavicle -2.43418e-014 4.17448e-015
rhumerus -81.1869 -39.7638 -22.541
rradius 11.0278
rwrist 38.3101
rhand -17.0112 -36.6335
rfingers 7.12502
rthumb 9.22455 -66.4117
lclavicle -2.43418e-014 4.17448e-015
lhumerus -17.401 -12.0245 83.4889
lradius 50.0537
lwrist 9.02854
lhand -22.1356 -18.9373
lfingers 7.12502
lthumb 4.27781 10.9995
rfemur -47.9689 -8.41766 22.9007
rtibia 17.5921
rfoot -12.0275 -0.0661922
rtoes -6.95208
lfemur -5.73741 4.63689 -23.5432
ltibia 21.3362
lfoot -25.7675 -11.1449
ltoes -15.793
324
root 0.159398 16.0365 26.3791 17.1839 9.45105 2.85639
lowerback -15.282 -2.94877 -5.97555
upperback -4.19198 -2.96181 0.0632342
thorax 4.39653 -1.48904 2.88024
lowerneck -4.39331 -3.33269 -2.13937
upperneck 14.8128 -4.87694 3.87613
head 5.32459 -2.25002 1.26885
rclavicle 2.55625e-014 5.06901e-015
rhumerus -81.7794 -39.2602 -21.8464
rradius 10.9647
rwrist 38.5597
rhand -16.9558 -36.3056
rfingers 7.12502
rthumb 9.27803 -66.0814
lclavicle 2.55625e-014 5.06901e-015
lhumerus -17.0924 -12.5285 83.4259
lradius 51.1785
lwrist 8.82855
lhand -22.6647 -19.5518
lfingers 7.12502
lthumb 3.7669 10.3947
rfemur -47.9367 -8.03437 22.4269
rtibia 16.1575
rfoot -12.7477 1.08805
rtoes -5.16592
lfemur -4.57098 4.40328 -23.6928
ltibia 20.5107
lfoot -25.5569 -10.6879
ltoes -18.4167
325
root 0.168777 16.0276 26.5989 17.2664 10.0336 2.90419
lowerback -15.343 -3.09121 -5.73626
upperback -4.19508 -3.1848 0.123531
thorax 4.43924 -1.59827 2.76252
lowerneck -4.09201 -3.2938 -2.04169
upperneck 14.4806 -4.79463 3.67454
head 5.16063 -2.22474 1.2024
rclavicle -4.06266e-015 2.55438e-014
rhumerus -82.307 -38.9156 -21.0769
rradius 10.8492
rwrist 39.085
rhand -16.354 -36.2011
rfingers 7.12502
rthumb 9.85862 -65.9503
lclavicle -4.06266e-015 2.55438e-014
lhumerus -16.9052 -12.8208 83.2861
lradius 52.3619
lwrist 8.67086
lhand -22.9236 -20.1479
lfingers 7.12502
lthumb 3.51691 9.8028
rfemur -48.639 -9.7196 23.7562
rtibia 15.8654
rfoot -11.1001 2.11393
rtoes -29.7091
lfemur -3.30168 3.80159 -23.3823
ltibia 19.5006
lfoot -24.7827 -10.8922
ltoes -19.1624
326
root 0.163981 15.9967 26.8206 17.6272 10.0656 3.08187
lowerback -15.5123 -3.12218 -5.81637
upperback -4.30712 -3.20638 0.169888
thorax 4.4197 -1.60618 2.84837
lowerneck -3.90509 -3.31779 -2.00586
upperneck 14.1617 -4.78609 3.42573
head 5.02344 -2.23953 1.12518
rclavicle 1.06179e-014 -1.46107e-014
rhumerus -82.5913 -38.5527 -20.6515
rradius 10.8256
rwrist 39.4184
rhand -15.7431 -36.2409
rfingers 7.12502
rthumb 10.448 -65.9613
lclavicle 1.06179e-014 -1.46107e-014
lhumerus -16.8012 -12.9265 83.2101
lradius 53.503
lwrist 8.46254
lhand -22.9243 -20.9885
lfingers 7.12502
lthumb 3.51623 8.96223
rfemur -49.4971 -10.1239 24.269
rtibia 15.6674
rfoot -12.9719 4.16651
rtoes -19.5463
lfemur -2.51437 3.33533 -23.3559
ltibia 18.8391
lfoot -24.052 -10.7173
ltoes -21.0755
327
root 0.168563 15.9718 27.0523 17.7069 10.4248 2.87572
lowerback -15.5044 -3.11707 -5.34316
upperback -4.38396 -3.28316 0.318199
thorax 4.32607 -1.63811 2.72593
lowerneck -3.98247 -3.36311 -2.2092
upperneck 14.0732 -4.81773 3.37045
head 5.01381 -2.26867 1.13858
rclavicle 3.07643e-014 2.14439e-014
rhumerus -81.9844 -37.8511 -21.7889
rradius 10.9048
rwrist 38.5356
rhand -15.607 -36.11
rfingers 7.12502
rthumb 10.5792 -65.8237
lclavicle 3.07643e-014 2.14439e-014
lhumerus -16.6543 -13.1583 83.2564
lradius 54.344
lwrist 8.30826
lhand -23.1335 -21.8863
lfingers 7.12502
lthumb 3.31413 8.06767
rfemur -49.741 -10.348 24.7719
rtibia 15.563
rfoot -13.9107 5.32144
rtoes -12.4671
lfemur -1.74149 2.8036 -22.8191
ltibia 18.6364
lfoot -23.5254 -10.8417
ltoes -23.0358
328
root 0.171589 15.9488 27.2901 17.3852 10.8667 2.62774
lowerback -15.2816 -3.19653 -4.88955
upperback -4.28204 -3.47849 0.484748
thorax 4.31791 -1.73483 2.61433
lowerneck -4.2044 -3.30943 -2.24023
upperneck 14.033 -4.71961 3.23806
head 5.03384 -2.22819 1.10474
rclavicle -3.2075e-014 -1.48343e-014
rhumerus -81.562 -37.3431 -22.4713
rradius 10.9291
rwrist 38.2798
rhand -15.4019 -35.7044
rfingers 7.12502
rthumb 10.7771 -65.408
lclavicle -3.2075e-014 -1.48343e-014
lhumerus -16.5195 -13.2868 83.1302
lradius 55.1828
lwrist 8.24839
lhand -23.9865 -22.2303
lfingers 7.12502
lthumb 2.49044 7.73494
rfemur -49.3024 -10.1928 24.8321
rtibia 15.8201
rfoot -13.8604 4.71507
rtoes -14.4405
lfemur -0.552452 2.21931 -22.1516
ltibia 18.6802
lfoot -23.0123 -11.4378
ltoes -23.5901
329
root 0.178795 15.9163 27.5276 17.2757 11.1828 2.63331
lowerback -15.3143 -3.26254 -4.57581
upperback -4.14418 -3.61209 0.529962
thorax 4.47815 -1.80446 2.45352
lowerneck -4.41464 -3.29632 -2.23731
upperneck 13.8903 -4.67979 3.12939
head 5.02183 -2.2141 1.07015
rclavicle 2.05758e-014 1.86858e-014
rhumerus -81.9258 -37.2957 -21.8434
rradius 10.9446
rwrist 39.0448
rhand -15.0609 -35.5368
rfingers 7.12502
rthumb 11.106 -65.2229
lclavicle 2.05758e-014 1.86858e-014
lhumerus -16.6111 -13.2756 82.9715
lradius 56.2652
lwrist 8.24704
lhand -24.3769 -22.2089
lfingers 7.12502
lthumb 2.11336 7.76036
rfemur -49.052 -9.67926 24.3011
rtibia 16.6061
rfoot -13.5852 3.46487
rtoes -17.3264
lfemur 0.430658 1.64589 -21.8335
ltibia 18.8697
lfoot -22.6932 -11.5909
ltoes -25.5112
330
root 0.18875 15.879 27.7668 17.3779 11.2672 2.76767
lowerback -15.4633 -3.24446 -4.35226
upperback -4.11392 -3.61567 0.552462
thorax 4.57949 -1.80671 2.34312
lowerneck -4.42925 -3.28922 -2.37177
upperneck 13.6611 -4.63329 3.00498
head 4.95265 -2.20717 1.05758
rclavicle 5.48273e-014 3.75703e-014
rhumerus -82.3072 -37.2602 -21.0036
rradius 10.837
rwrist 40.0111
rhand -15.0002 -35.6843
rfingers 7.12502
rthumb 11.1645 -65.3673
lclavicle 5.48273e-014 3.75703e-014
lhumerus -16.9403 -13.2062 83.0373
lradius 57.3986
lwrist 8.28456
lhand -24.3623 -22.1886
lfingers 7.12502
lthumb 2.12743 7.78055
rfemur -49.1845 -9.05262 23.6689
rtibia 17.9743
rfoot -15.7294 2.78422
rtoes -11.8937
lfemur 0.933861 0.911083 -21.78
ltibia 19.2069
lfoot -21.448 -12.2421
ltoes -24.6995
331
root 0.190682 15.8392 28.0124 17.3591 11.1347 2.8208
lowerback -15.4568 -3.17738 -4.2204
upperback -4.12406 -3.55154 0.609473
thorax 4.55663 -1.77393 2.34263
lowerneck -4.43306 -3.19215 -2.38534
upperneck 13.4707 -4.46587 2.7886
head 4.88547 -2.14001 1.00399
rclavicle -7.99487e-015 -1.04362e-014
rhumerus -83.3223 -37.3392 -19.1014
rradius 10.6345
rwrist 41.9548
rhand -15.3579 -35.2233
rfingers 7.12502
rthumb 10.8196 -64.9246
lclavicle -7.99487e-015 -1.04362e-014
lhumerus -17.396 -13.2052 83.0776
lradius 58.4435
lwrist 8.3499
lhand -24.3879 -21.9997
lfingers 7.12502
lthumb 2.10277 7.96971
rfemur -49.2199 -8.32767 23.248
rtibia 19.6821
rfoot -14.0633 1.59004
rtoes -18.3427
lfemur 1.42832 0.324738 -21.6685
ltibia 19.7621
lfoot -19.9719 -12.9474
ltoes -24.5097
332
root 0.189594 15.8126 28.2656 17.2323 11.2874 2.91932
lowerback -15.3097 -3.24026 -4.14685
upperback -4.12802 -3.65843 0.704099
thorax 4.48315 -1.82547 2.38648
lowerneck -4.53122 -3.08129 -2.38869
upperneck 13.3398 -4.28066 2.56522
head 4.85215 -2.0626 0.94562
rclavicle 5.02118e-014 9.54166e-015
rhumerus -83.854 -37.3142 -17.9034
rradius 10.5497
rwrist 43.2393
rhand -15.6789 -34.7898
rfingers 7.12502
rthumb 10.5099 -64.5071
lclavicle 5.02118e-014 9.54166e-015
lhumerus -17.9088 -13.0801 83.1396
lradius 59.2878
lwrist 8.44961
lhand -24.5167 -22.138
lfingers 7.12502
lthumb 1.97832 7.83257
rfemur -49.1692 -8.13411 23.1521
rtibia 21.6848
rfoot -12.4423 0.388923
rtoes -24.4861
lfemur 2.1199 -0.220494 -21.4545
ltibia 20.3224
lfoot -18.3521 -14.2399
ltoes -24.2258
